IKResults
version=1
nRows=5
nColumns=55
inDegrees=yes

Units are S.I. units (second, meters, Newtons, ...)
If the header above contains a line with 'inDegrees', this indicates whether rotational values are in degrees (yes) or radians (no).

endheader
time	pelvis_tilt	pelvis_list	pelvis_rotation	pelvis_tx	pelvis_ty	pelvis_tz	hip_flexion_r	hip_adduction_r	hip_rotation_r	hip_flexion_l	hip_adduction_l	hip_rotation_l	flex_extension	lat_bending	axial_rotation	L4_L5_IVDjnt_r3	L4_L5_IVD_bendjnt_r1	L4_L5_IVD_rotjnt_r2	L3_L4_IVDjnt_r3	L3_L4_IVD_bendjnt_r1	L3_L4_IVD_rotjnt_r2	L2_L3_IVDjnt_r3	L2_L3_IVD_bendjnt_r1	L2_L3_IVD_rotjnt_r2	L1_L2_IVDjnt_r3	L1_L2_IVD_bendjnt_r1	L1_L2_IVD_rotjnt_r2	Torso_Rot	Abs_r3	Abs_t1	Abs_t2	LB_wrapjnt_r3	LB_wrapjnt_t1	LB_wrapjnt_t2	SC_y	SC_x	SC_z	SC_y_l	SC_x_l	SC_z_l	arm_flex_r	arm_add_r	arm_rot_r	elbow_flex_r	pro_sup_r	wrist_flex_r	wrist_dev_r	arm_flex_l	arm_add_l	arm_rot_l	elbow_flex_l	pro_sup_l	wrist_flex_l	wrist_dev_l
     12.50000000	     -7.26032582	    -56.32921375	     89.98173502	      0.68478544	      0.83161925	     -0.34638755	      0.00000000	     -0.00000000	      0.00000000	      0.00000000	     -0.00000000	      0.00000000	      1.22006254	     -0.43582197	      0.97845031	     10.06623855	     -4.52184606	      2.36702674	     14.31258341	     -6.12610246	      2.36702674	     17.23969179	     -6.24588858	      1.86870006	      0.35892044	     -4.69298309	      1.61954386	     11.52865390	     44.93857312	      0.00000000	      0.00000000	     41.94266062	      0.04032945	      0.01344315	     29.96256086	      6.37293268	     34.14902303	     29.93253468	    -16.30216911	     -4.78233363	    -11.46906639	     10.34042290	     89.44257824	     23.42122593	     89.21445085	     36.20687108	      1.57107512	    -15.50801992	    -16.95762190	     36.39648860	     51.43792068	     88.18918656	      1.92946680	      6.50129071
     12.51000000	     -7.31604818	    -56.37204709	     89.98168156	      0.68383623	      0.83170509	     -0.34617876	      0.00000000	     -0.00000000	      0.00000000	      0.00000000	     -0.00000000	      0.00000000	      1.22040100	     -0.43582407	      0.97844979	     10.06903107	     -4.52186789	      2.36702548	     14.31655393	     -6.12613203	      2.36702548	     17.24447434	     -6.24591872	      1.86869907	      0.35902001	     -4.69300574	      1.61954300	     11.52864780	     44.95103974	      0.00000000	      0.00000000	     41.95429612	      0.04034063	      0.01344688	     29.96255308	      6.35699900	     34.13209851	     29.93242191	    -16.24145467	     -4.78091430	    -11.54916104	     10.36625441	     89.43891605	     23.31305707	     89.21351702	     36.22325541	      1.58549277	    -15.52261514	    -16.92076153	     36.43282646	     51.31687601	     88.18143890	      1.96425853	      6.52108017
     12.52000000	     -7.35531628	    -56.38271310	     89.98167883	      0.68304804	      0.83185858	     -0.34627739	      0.00000000	     -0.00000000	      0.00000000	      0.00000000	     -0.00000000	      0.00000000	      1.22088814	     -0.43582232	      0.97844837	     10.07305020	     -4.52184968	      2.36702204	     14.32226849	     -6.12610736	      2.36702204	     17.25135760	     -6.24589357	      1.86869635	      0.35916331	     -4.69298684	      1.61954064	     11.52863101	     44.96898228	      0.00000000	      0.00000000	     41.97104250	      0.04035674	      0.01345225	     29.96248706	      6.36090165	     34.13593255	     29.93218961	    -16.20514702	     -4.79516723	    -11.66272531	     10.43159424	     89.46542484	     23.11461655	     89.24036804	     36.26718450	      1.62263829	    -15.53712873	    -16.85665143	     36.52151939	     51.06289672	     88.17048914	      2.03564394	      6.56342735
     12.53000000	     -7.37129973	    -56.40486299	     89.98162605	      0.68257734	      0.83191196	     -0.34619795	      0.00000000	     -0.00000000	      0.00000000	      0.00000000	     -0.00000000	      0.00000000	      1.22114024	     -0.43582406	      0.97844794	     10.07513021	     -4.52186775	      2.36702101	     14.32522594	     -6.12613185	      2.36702101	     17.25491988	     -6.24591853	      1.86869554	      0.35923748	     -4.69300560	      1.61953994	     11.52862604	     44.97826806	      0.00000000	      0.00000000	     41.97970922	      0.04036507	      0.01345502	     29.96244365	      6.35192108	     34.13381365	     29.93210940	    -16.21162538	     -4.80178283	    -11.75031591	     10.46375097	     89.43570106	     23.01901573	     89.21881307	     36.30013738	      1.63847458	    -15.53421614	    -16.76538730	     36.56901128	     50.98243716	     88.16556913	      2.07638079	      6.58526057
     12.54000000	     -7.41767830	    -56.41698408	     89.98162403	      0.68180104	      0.83199999	     -0.34616388	      0.00000000	     -0.00000000	      0.00000000	      0.00000000	     -0.00000000	      0.00000000	      1.22141242	     -0.43582255	      0.97844755	     10.07737588	     -4.52185207	      2.36702006	     14.32841892	     -6.12611059	      2.36702006	     17.25876587	     -6.24589687	      1.86869479	      0.35931755	     -4.69298932	      1.61953929	     11.52862140	     44.98829337	      0.00000000	      0.00000000	     41.98906617	      0.04037407	      0.01345802	     29.96237557	      6.32265989	     34.13014966	     29.93217434	    -16.20498219	     -4.79860746	    -11.85962945	     10.48213343	     89.45079839	     22.90626219	     89.23213111	     36.34638457	      1.66041459	    -15.57241553	    -16.66045764	     36.64962577	     50.83103793	     88.16046868	      2.12839921	      6.61694071
